<mxfile host="app.diagrams.net" modified="2023-07-09T10:40:57.382Z" agent="Mozilla/5.0 (Windows NT 10.0; Win64; x64; rv:109.0) Gecko/20100101 Firefox/114.0" version="21.6.1" etag="OdlaC6rBvrf7j0Avj4ZT" type="github">
  <diagram name="Page-1" id="ff-fWf8IqmI575Tmpqwr">
    <mxGraphModel>
      <root>
        <mxCell id="0" />
        <mxCell id="1" parent="0" />
      </root>
    </mxGraphModel>
  </diagram>
</mxfile>
